<svg width="228" height="46" viewBox="0 0 228 46" fill="none" xmlns="http://www.w3.org/2000/svg">
<g filter="url(#filter0_d)">
<path d="M23.5086 11.936C23.5086 9.992 23.1126 8.552 22.3206 7.616C21.5286 6.656 20.4486 6.188 19.0806 6.212H17.3526V23.096C17.3526 23.744 17.3406 24.368 17.3166 24.968C17.2926 25.568 17.2566 26.024 17.2086 26.336C17.6166 26.288 18.1326 26.264 18.7566 26.264C19.4046 26.24 19.8486 26.228 20.0886 26.228V29H9.57664V26.624C10.1286 26.6 10.5846 26.528 10.9446 26.408C11.3286 26.288 11.6166 26.012 11.8086 25.58C12.0246 25.148 12.1326 24.452 12.1326 23.492V6.248H10.4766C9.10864 6.272 8.02864 6.74 7.23664 7.652C6.44464 8.564 6.04864 9.992 6.04864 11.936H3.67264L3.85264 3.8H25.6686L25.8846 11.936H23.5086ZM31.0861 29V26.66C32.0701 26.66 32.6701 26.372 32.8861 25.796C33.1021 25.196 33.2101 24.416 33.2101 23.456V17.408C33.2101 16.976 33.2221 16.496 33.2461 15.968C33.2701 15.416 33.3061 14.876 33.3541 14.348C32.9701 14.372 32.5141 14.396 31.9861 14.42C31.4821 14.42 31.0981 14.432 30.8341 14.456V11.72C32.4901 11.72 33.7621 11.6 34.6501 11.36C35.5621 11.12 36.1381 10.88 36.3781 10.64H38.1421C38.1901 10.88 38.2141 11.18 38.2141 11.54C38.2381 11.9 38.2621 12.2 38.2861 12.44C39.1021 11.816 39.9781 11.324 40.9141 10.964C41.8741 10.604 42.7741 10.424 43.6141 10.424C44.7181 10.424 45.6301 10.628 46.3501 11.036C47.0701 11.42 47.6461 12.008 48.0781 12.8C48.9421 12.08 49.8901 11.504 50.9221 11.072C51.9781 10.64 52.9861 10.424 53.9461 10.424C55.8901 10.424 57.3541 10.988 58.3381 12.116C59.3461 13.22 59.8501 15.152 59.8501 17.912V23.204C59.8501 23.54 59.8381 24.02 59.8141 24.644C59.7901 25.244 59.7541 25.82 59.7061 26.372C60.0901 26.324 60.5101 26.3 60.9661 26.3C61.4461 26.276 61.8061 26.264 62.0461 26.264V29H52.9381V26.66C53.7781 26.66 54.2821 26.372 54.4501 25.796C54.6421 25.196 54.7381 24.416 54.7381 23.456V17.948C54.7141 16.388 54.4501 15.308 53.9461 14.708C53.4661 14.108 52.8181 13.796 52.0021 13.772C51.3781 13.748 50.7901 13.856 50.2381 14.096C49.7101 14.336 49.2301 14.624 48.7981 14.96C49.0141 15.92 49.1221 17.06 49.1221 18.38V23.204C49.1221 23.54 49.1101 24.02 49.0861 24.644C49.0621 25.244 49.0261 25.82 48.9781 26.372C49.3621 26.324 49.7821 26.3 50.2381 26.3C50.6941 26.276 51.0541 26.264 51.3181 26.264V29H42.0301V26.66C42.9421 26.66 43.4941 26.372 43.6861 25.796C43.9021 25.196 44.0101 24.416 44.0101 23.456L43.9741 17.84C43.9741 16.28 43.7461 15.212 43.2901 14.636C42.8341 14.06 42.1981 13.76 41.3821 13.736C40.7821 13.736 40.2181 13.868 39.6901 14.132C39.1861 14.396 38.7301 14.708 38.3221 15.068V23.204C38.3221 23.54 38.3101 24.02 38.2861 24.644C38.2621 25.244 38.2261 25.82 38.1781 26.372C38.5621 26.324 38.9581 26.3 39.3661 26.3C39.7741 26.276 40.0981 26.264 40.3381 26.264V29H31.0861ZM75.9393 29.576C74.3313 29.576 72.8553 29.216 71.5113 28.496C70.1673 27.776 69.0873 26.732 68.2713 25.364C67.4793 23.996 67.0833 22.34 67.0833 20.396C67.0833 18.572 67.4793 16.916 68.2713 15.428C69.0633 13.916 70.1553 12.704 71.5473 11.792C72.9633 10.88 74.5953 10.424 76.4433 10.424C77.9793 10.424 79.2513 10.664 80.2593 11.144C81.2913 11.6 82.0593 12.212 82.5633 12.98C83.0913 13.724 83.3553 14.516 83.3553 15.356C83.3553 16.052 83.1393 16.676 82.7073 17.228C82.2993 17.756 81.7113 18.032 80.9433 18.056C80.0313 18.08 79.3953 17.828 79.0353 17.3C78.6753 16.748 78.4953 16.22 78.4953 15.716C78.4953 15.5 78.5313 15.248 78.6033 14.96C78.6753 14.648 78.7833 14.372 78.9273 14.132C78.6633 13.604 78.2433 13.268 77.6673 13.124C77.0913 12.98 76.6353 12.92 76.2993 12.944C75.1473 13.016 74.1993 13.592 73.4553 14.672C72.7113 15.752 72.3393 17.312 72.3393 19.352C72.3393 20.552 72.4833 21.68 72.7713 22.736C73.0833 23.768 73.5873 24.62 74.2833 25.292C74.9793 25.964 75.9153 26.324 77.0913 26.372C78.0993 26.396 79.0833 26.156 80.0433 25.652C81.0033 25.148 81.8193 24.464 82.4913 23.6L84.1473 25.22C83.2833 26.42 82.3833 27.332 81.4473 27.956C80.5113 28.58 79.5753 29 78.6393 29.216C77.7273 29.456 76.8273 29.576 75.9393 29.576Z" fill="#291B1B"/>
<path d="M89.6401 26.624C90.1921 26.6 90.6481 26.528 91.0081 26.408C91.3921 26.288 91.6801 26.012 91.8721 25.58C92.0881 25.148 92.1961 24.452 92.1961 23.492V9.704C92.1961 9.056 92.2081 8.432 92.2321 7.832C92.2801 7.232 92.3161 6.776 92.3401 6.464C91.9561 6.488 91.4761 6.512 90.9001 6.536C90.3241 6.536 89.9041 6.548 89.6401 6.572V3.8L100.116 3.764C102.492 3.764 104.544 4.124 106.272 4.844C108.024 5.54 109.452 6.488 110.556 7.688C111.684 8.888 112.524 10.232 113.076 11.72C113.628 13.184 113.904 14.66 113.904 16.148C113.904 17.612 113.64 19.1 113.112 20.612C112.608 22.124 111.804 23.516 110.7 24.788C109.596 26.036 108.156 27.056 106.38 27.848C104.604 28.616 102.456 29 99.9361 29H89.6401V26.624ZM97.4161 23.096C97.4161 23.744 97.4041 24.368 97.3801 24.968C97.3561 25.568 97.3201 26.024 97.2721 26.336C97.5121 26.312 97.8361 26.312 98.2441 26.336C98.6761 26.336 99.1201 26.348 99.5761 26.372C100.032 26.372 100.404 26.372 100.692 26.372C102.012 26.372 103.14 26.108 104.076 25.58C105.036 25.052 105.816 24.344 106.416 23.456C107.04 22.544 107.496 21.524 107.784 20.396C108.072 19.268 108.216 18.104 108.216 16.904C108.216 13.232 107.472 10.544 105.984 8.84C104.52 7.136 102.54 6.248 100.044 6.176C99.4681 6.152 98.9761 6.212 98.5681 6.356C98.1841 6.476 97.8961 6.752 97.7041 7.184C97.5121 7.616 97.4161 8.3 97.4161 9.236V23.096ZM128.404 29.576C126.652 29.576 125.104 29.192 123.76 28.424C122.416 27.632 121.372 26.528 120.628 25.112C119.884 23.672 119.512 21.98 119.512 20.036C119.512 18.356 119.884 16.784 120.628 15.32C121.372 13.856 122.416 12.68 123.76 11.792C125.128 10.88 126.712 10.424 128.512 10.424C129.52 10.424 130.504 10.568 131.464 10.856C132.424 11.12 133.288 11.588 134.056 12.26C134.848 12.932 135.472 13.844 135.928 14.996C136.408 16.148 136.636 17.588 136.612 19.316L124.804 19.532C124.804 20.828 124.96 21.992 125.272 23.024C125.608 24.056 126.148 24.872 126.892 25.472C127.636 26.072 128.632 26.372 129.88 26.372C130.6 26.372 131.452 26.18 132.436 25.796C133.444 25.388 134.356 24.68 135.172 23.672L136.792 25.184C135.928 26.408 135.004 27.344 134.02 27.992C133.036 28.616 132.052 29.036 131.068 29.252C130.108 29.468 129.22 29.576 128.404 29.576ZM125.02 17.012H131.644C131.62 15.524 131.332 14.48 130.78 13.88C130.228 13.256 129.532 12.944 128.692 12.944C127.636 12.944 126.808 13.328 126.208 14.096C125.608 14.84 125.212 15.812 125.02 17.012ZM150.764 29.576C149.732 29.576 148.724 29.444 147.74 29.18C146.756 28.916 145.988 28.58 145.436 28.172L145.508 29.252H142.772L142.628 23.06H144.968C145.088 24.164 145.664 25.1 146.696 25.868C147.728 26.612 149.012 26.984 150.548 26.984C151.148 26.984 151.712 26.84 152.24 26.552C152.768 26.264 153.032 25.808 153.032 25.184C153.008 24.488 152.636 23.972 151.916 23.636C151.22 23.3 150.2 22.868 148.856 22.34C148.112 22.052 147.356 21.752 146.588 21.44C145.844 21.128 145.148 20.756 144.5 20.324C143.876 19.868 143.372 19.316 142.988 18.668C142.604 17.996 142.412 17.18 142.412 16.22C142.412 15.284 142.64 14.372 143.096 13.484C143.576 12.596 144.32 11.864 145.328 11.288C146.336 10.712 147.62 10.424 149.18 10.424C149.828 10.424 150.56 10.532 151.376 10.748C152.216 10.94 152.924 11.24 153.5 11.648V10.604H156.236V16.976H153.896C153.68 15.728 153.128 14.744 152.24 14.024C151.352 13.304 150.26 12.944 148.964 12.944C148.364 12.944 147.812 13.088 147.308 13.376C146.828 13.664 146.588 14.156 146.588 14.852C146.588 15.404 146.78 15.848 147.164 16.184C147.548 16.496 148.076 16.76 148.748 16.976C149.42 17.192 150.164 17.444 150.98 17.732C152.204 18.14 153.284 18.62 154.22 19.172C155.18 19.724 155.936 20.396 156.488 21.188C157.04 21.956 157.316 22.904 157.316 24.032C157.316 25.28 157.004 26.312 156.38 27.128C155.756 27.944 154.94 28.556 153.932 28.964C152.948 29.372 151.892 29.576 150.764 29.576ZM163.196 26.66C164.18 26.66 164.78 26.372 164.996 25.796C165.212 25.196 165.32 24.416 165.32 23.456V17.48C165.32 17.048 165.332 16.556 165.356 16.004C165.38 15.428 165.416 14.876 165.464 14.348C165.08 14.372 164.624 14.396 164.096 14.42C163.592 14.42 163.208 14.432 162.944 14.456V11.72C164.6 11.72 165.872 11.6 166.76 11.36C167.672 11.12 168.248 10.88 168.488 10.64H170.432V23.204C170.432 23.54 170.42 24.02 170.396 24.644C170.372 25.244 170.336 25.82 170.288 26.372C170.672 26.324 171.092 26.3 171.548 26.3C172.028 26.276 172.388 26.264 172.628 26.264V29H163.196V26.66ZM167.696 7.796C166.88 7.796 166.208 7.508 165.68 6.932C165.152 6.356 164.888 5.66 164.888 4.844C164.888 4.028 165.164 3.332 165.716 2.756C166.268 2.18 166.916 1.892 167.66 1.892C168.428 1.892 169.064 2.18 169.568 2.756C170.096 3.332 170.36 4.028 170.36 4.844C170.36 5.66 170.12 6.356 169.64 6.932C169.16 7.508 168.512 7.796 167.696 7.796ZM185.954 38.756C183.89 38.756 182.258 38.528 181.058 38.072C179.858 37.64 179.006 37.064 178.502 36.344C177.998 35.624 177.746 34.856 177.746 34.04C177.746 33.296 177.986 32.54 178.466 31.772C178.97 31.004 179.87 30.38 181.166 29.9C180.182 29.636 179.486 29.216 179.078 28.64C178.694 28.04 178.502 27.404 178.502 26.732C178.502 26.108 178.754 25.412 179.258 24.644C179.762 23.852 180.674 23.252 181.994 22.844C180.986 22.436 180.158 21.8 179.51 20.936C178.862 20.072 178.514 19.028 178.466 17.804C178.418 16.364 178.778 15.092 179.546 13.988C180.314 12.86 181.322 11.984 182.57 11.36C183.818 10.736 185.126 10.424 186.494 10.424C187.118 10.424 187.838 10.508 188.654 10.676C189.47 10.844 190.178 11.132 190.778 11.54C191.042 10.796 191.378 10.1 191.786 9.452C192.218 8.78 192.734 8.24 193.334 7.832C193.934 7.4 194.606 7.184 195.35 7.184C196.166 7.184 196.778 7.4 197.186 7.832C197.618 8.24 197.834 8.792 197.834 9.488C197.834 9.776 197.762 10.1 197.618 10.46C197.498 10.796 197.27 11.084 196.934 11.324C196.622 11.564 196.178 11.684 195.602 11.684C195.242 11.684 194.882 11.552 194.522 11.288C194.162 11 193.946 10.664 193.874 10.28C193.562 10.376 193.25 10.688 192.938 11.216C192.626 11.744 192.446 12.212 192.398 12.62C193.814 13.844 194.522 15.392 194.522 17.264C194.522 18.656 194.126 19.892 193.334 20.972C192.566 22.028 191.558 22.868 190.31 23.492C189.086 24.092 187.766 24.392 186.35 24.392C186.038 24.392 185.69 24.38 185.306 24.356C184.922 24.308 184.55 24.284 184.19 24.284C183.662 24.284 183.218 24.38 182.858 24.572C182.498 24.764 182.318 25.028 182.318 25.364C182.318 25.82 182.666 26.132 183.362 26.3C184.058 26.468 185.246 26.6 186.926 26.696C188.774 26.792 190.382 27.032 191.75 27.416C193.142 27.776 194.222 28.352 194.99 29.144C195.758 29.936 196.142 31.028 196.142 32.42C196.142 33.452 195.842 34.352 195.242 35.12C194.642 35.912 193.838 36.572 192.83 37.1C191.846 37.652 190.754 38.06 189.554 38.324C188.354 38.612 187.154 38.756 185.954 38.756ZM186.494 21.98C187.142 21.98 187.682 21.776 188.114 21.368C188.57 20.96 188.906 20.444 189.122 19.82C189.362 19.196 189.482 18.56 189.482 17.912C189.482 17.072 189.374 16.268 189.158 15.5C188.942 14.708 188.606 14.072 188.15 13.592C187.718 13.088 187.154 12.836 186.458 12.836C185.498 12.836 184.754 13.268 184.226 14.132C183.698 14.996 183.434 15.98 183.434 17.084C183.434 17.924 183.554 18.728 183.794 19.496C184.034 20.24 184.382 20.84 184.838 21.296C185.294 21.752 185.846 21.98 186.494 21.98ZM186.998 36.272C188.702 36.272 189.986 35.96 190.85 35.336C191.738 34.712 192.182 34.064 192.182 33.392C192.182 31.952 190.454 31.16 186.998 31.016C186.47 30.968 185.858 30.932 185.162 30.908C184.466 30.884 183.854 30.824 183.326 30.728C182.966 31.016 182.69 31.376 182.498 31.808C182.306 32.24 182.198 32.66 182.174 33.068C182.126 34.028 182.534 34.796 183.398 35.372C184.286 35.972 185.486 36.272 186.998 36.272ZM201.493 29V26.66C202.477 26.66 203.077 26.372 203.293 25.796C203.509 25.196 203.617 24.416 203.617 23.456V17.408C203.617 16.976 203.629 16.496 203.653 15.968C203.677 15.416 203.713 14.876 203.761 14.348C203.377 14.372 202.921 14.396 202.393 14.42C201.889 14.42 201.505 14.432 201.241 14.456V11.72C202.897 11.72 204.169 11.6 205.057 11.36C205.969 11.12 206.545 10.88 206.785 10.64H208.549C208.597 10.952 208.621 11.18 208.621 11.324C208.621 11.468 208.621 11.612 208.621 11.756C208.645 11.876 208.693 12.104 208.765 12.44C209.245 12.056 209.797 11.72 210.421 11.432C211.045 11.12 211.669 10.88 212.293 10.712C212.917 10.52 213.469 10.424 213.949 10.424C216.157 10.424 217.717 11.06 218.629 12.332C219.565 13.58 220.033 15.596 220.033 18.38V23.204C220.033 23.54 220.021 24.02 219.997 24.644C219.973 25.244 219.937 25.82 219.889 26.372C220.297 26.324 220.729 26.3 221.185 26.3C221.641 26.276 221.989 26.264 222.229 26.264V29H212.797V26.66C213.805 26.66 214.417 26.372 214.633 25.796C214.849 25.196 214.957 24.416 214.957 23.456L214.921 18.344C214.921 16.784 214.693 15.632 214.237 14.888C213.805 14.12 213.061 13.736 212.005 13.736C211.405 13.736 210.805 13.868 210.205 14.132C209.629 14.396 209.137 14.708 208.729 15.068V23.204C208.729 23.54 208.717 24.02 208.693 24.644C208.669 25.244 208.633 25.82 208.585 26.372C208.969 26.324 209.389 26.3 209.845 26.3C210.325 26.276 210.685 26.264 210.925 26.264V29H201.493Z" fill="#32A4AB"/>
</g>
<defs>
<filter id="filter0_d" x="0.672668" y="0.891968" width="226.556" height="44.864" filterUnits="userSpaceOnUse" color-interpolation-filters="sRGB">
<feFlood flood-opacity="0" result="BackgroundImageFix"/>
<feColorMatrix in="SourceAlpha" type="matrix" values="0 0 0 0 0 0 0 0 0 0 0 0 0 0 0 0 0 0 127 0"/>
<feOffset dx="1" dy="3"/>
<feGaussianBlur stdDeviation="2"/>
<feColorMatrix type="matrix" values="0 0 0 0 0.595833 0 0 0 0 0.593351 0 0 0 0 0.593351 0 0 0 1 0"/>
<feBlend mode="normal" in2="BackgroundImageFix" result="effect1_dropShadow"/>
<feBlend mode="normal" in="SourceGraphic" in2="effect1_dropShadow" result="shape"/>
</filter>
</defs>
</svg>
