<svg width="206" height="46" viewBox="0 0 206 46" fill="none" xmlns="http://www.w3.org/2000/svg">
<g filter="url(#filter0_d)">
<path d="M23.4451 11.936C23.4451 9.992 23.0491 8.552 22.2571 7.616C21.4651 6.656 20.3851 6.188 19.0171 6.212H17.2891V23.096C17.2891 23.744 17.2771 24.368 17.2531 24.968C17.2291 25.568 17.1931 26.024 17.1451 26.336C17.5531 26.288 18.0691 26.264 18.6931 26.264C19.3411 26.24 19.7851 26.228 20.0251 26.228V29H9.51305V26.624C10.0651 26.6 10.5211 26.528 10.8811 26.408C11.2651 26.288 11.5531 26.012 11.7451 25.58C11.9611 25.148 12.0691 24.452 12.0691 23.492V6.248H10.4131C9.04505 6.272 7.96505 6.74 7.17305 7.652C6.38105 8.564 5.98505 9.992 5.98505 11.936H3.60905L3.78905 3.8H25.6051L25.8211 11.936H23.4451ZM31.0225 29V26.66C32.0065 26.66 32.6065 26.372 32.8225 25.796C33.0385 25.196 33.1465 24.416 33.1465 23.456V17.408C33.1465 16.976 33.1585 16.496 33.1825 15.968C33.2065 15.416 33.2425 14.876 33.2905 14.348C32.9065 14.372 32.4505 14.396 31.9225 14.42C31.4185 14.42 31.0345 14.432 30.7705 14.456V11.72C32.4265 11.72 33.6985 11.6 34.5865 11.36C35.4985 11.12 36.0745 10.88 36.3145 10.64H38.0785C38.1265 10.88 38.1505 11.18 38.1505 11.54C38.1745 11.9 38.1985 12.2 38.2225 12.44C39.0385 11.816 39.9145 11.324 40.8505 10.964C41.8105 10.604 42.7105 10.424 43.5505 10.424C44.6545 10.424 45.5665 10.628 46.2865 11.036C47.0065 11.42 47.5825 12.008 48.0145 12.8C48.8785 12.08 49.8265 11.504 50.8585 11.072C51.9145 10.64 52.9225 10.424 53.8825 10.424C55.8265 10.424 57.2905 10.988 58.2745 12.116C59.2825 13.22 59.7865 15.152 59.7865 17.912V23.204C59.7865 23.54 59.7745 24.02 59.7505 24.644C59.7265 25.244 59.6905 25.82 59.6425 26.372C60.0265 26.324 60.4465 26.3 60.9025 26.3C61.3825 26.276 61.7425 26.264 61.9825 26.264V29H52.8745V26.66C53.7145 26.66 54.2185 26.372 54.3865 25.796C54.5785 25.196 54.6745 24.416 54.6745 23.456V17.948C54.6505 16.388 54.3865 15.308 53.8825 14.708C53.4025 14.108 52.7545 13.796 51.9385 13.772C51.3145 13.748 50.7265 13.856 50.1745 14.096C49.6465 14.336 49.1665 14.624 48.7345 14.96C48.9505 15.92 49.0585 17.06 49.0585 18.38V23.204C49.0585 23.54 49.0465 24.02 49.0225 24.644C48.9985 25.244 48.9625 25.82 48.9145 26.372C49.2985 26.324 49.7185 26.3 50.1745 26.3C50.6305 26.276 50.9905 26.264 51.2545 26.264V29H41.9665V26.66C42.8785 26.66 43.4305 26.372 43.6225 25.796C43.8385 25.196 43.9465 24.416 43.9465 23.456L43.9105 17.84C43.9105 16.28 43.6825 15.212 43.2265 14.636C42.7705 14.06 42.1345 13.76 41.3185 13.736C40.7185 13.736 40.1545 13.868 39.6265 14.132C39.1225 14.396 38.6665 14.708 38.2585 15.068V23.204C38.2585 23.54 38.2465 24.02 38.2225 24.644C38.1985 25.244 38.1625 25.82 38.1145 26.372C38.4985 26.324 38.8945 26.3 39.3025 26.3C39.7105 26.276 40.0345 26.264 40.2745 26.264V29H31.0225Z" fill="#291B1B"/>
<path d="M67.7037 26.624C68.2557 26.6 68.7117 26.528 69.0717 26.408C69.4557 26.288 69.7437 26.012 69.9357 25.58C70.1517 25.148 70.2597 24.452 70.2597 23.492V9.704C70.2597 9.056 70.2717 8.432 70.2957 7.832C70.3437 7.232 70.3797 6.776 70.4037 6.464C70.0197 6.488 69.5397 6.512 68.9637 6.536C68.3877 6.536 67.9677 6.548 67.7037 6.572V3.8L78.1797 3.764C80.5557 3.764 82.6077 4.124 84.3357 4.844C86.0877 5.54 87.5157 6.488 88.6197 7.688C89.7477 8.888 90.5877 10.232 91.1397 11.72C91.6917 13.184 91.9677 14.66 91.9677 16.148C91.9677 17.612 91.7037 19.1 91.1757 20.612C90.6717 22.124 89.8677 23.516 88.7637 24.788C87.6597 26.036 86.2197 27.056 84.4437 27.848C82.6677 28.616 80.5197 29 77.9997 29H67.7037V26.624ZM75.4797 23.096C75.4797 23.744 75.4677 24.368 75.4437 24.968C75.4197 25.568 75.3837 26.024 75.3357 26.336C75.5757 26.312 75.8997 26.312 76.3077 26.336C76.7397 26.336 77.1837 26.348 77.6397 26.372C78.0957 26.372 78.4677 26.372 78.7557 26.372C80.0757 26.372 81.2037 26.108 82.1397 25.58C83.0997 25.052 83.8797 24.344 84.4797 23.456C85.1037 22.544 85.5597 21.524 85.8477 20.396C86.1357 19.268 86.2797 18.104 86.2797 16.904C86.2797 13.232 85.5357 10.544 84.0477 8.84C82.5837 7.136 80.6037 6.248 78.1077 6.176C77.5317 6.152 77.0397 6.212 76.6317 6.356C76.2477 6.476 75.9597 6.752 75.7677 7.184C75.5757 7.616 75.4797 8.3 75.4797 9.236V23.096ZM106.468 29.576C104.716 29.576 103.168 29.192 101.824 28.424C100.48 27.632 99.4361 26.528 98.6921 25.112C97.9481 23.672 97.5761 21.98 97.5761 20.036C97.5761 18.356 97.9481 16.784 98.6921 15.32C99.4361 13.856 100.48 12.68 101.824 11.792C103.192 10.88 104.776 10.424 106.576 10.424C107.584 10.424 108.568 10.568 109.528 10.856C110.488 11.12 111.352 11.588 112.12 12.26C112.912 12.932 113.536 13.844 113.992 14.996C114.472 16.148 114.7 17.588 114.676 19.316L102.868 19.532C102.868 20.828 103.024 21.992 103.336 23.024C103.672 24.056 104.212 24.872 104.956 25.472C105.7 26.072 106.696 26.372 107.944 26.372C108.664 26.372 109.516 26.18 110.5 25.796C111.508 25.388 112.42 24.68 113.236 23.672L114.856 25.184C113.992 26.408 113.068 27.344 112.084 27.992C111.1 28.616 110.116 29.036 109.132 29.252C108.172 29.468 107.284 29.576 106.468 29.576ZM103.084 17.012H109.708C109.684 15.524 109.396 14.48 108.844 13.88C108.292 13.256 107.596 12.944 106.756 12.944C105.7 12.944 104.872 13.328 104.272 14.096C103.672 14.84 103.276 15.812 103.084 17.012ZM128.827 29.576C127.795 29.576 126.787 29.444 125.803 29.18C124.819 28.916 124.051 28.58 123.499 28.172L123.571 29.252H120.835L120.691 23.06H123.031C123.151 24.164 123.727 25.1 124.759 25.868C125.791 26.612 127.075 26.984 128.611 26.984C129.211 26.984 129.775 26.84 130.303 26.552C130.831 26.264 131.095 25.808 131.095 25.184C131.071 24.488 130.699 23.972 129.979 23.636C129.283 23.3 128.263 22.868 126.919 22.34C126.175 22.052 125.419 21.752 124.651 21.44C123.907 21.128 123.211 20.756 122.563 20.324C121.939 19.868 121.435 19.316 121.051 18.668C120.667 17.996 120.475 17.18 120.475 16.22C120.475 15.284 120.703 14.372 121.159 13.484C121.639 12.596 122.383 11.864 123.391 11.288C124.399 10.712 125.683 10.424 127.243 10.424C127.891 10.424 128.623 10.532 129.439 10.748C130.279 10.94 130.987 11.24 131.563 11.648V10.604H134.299V16.976H131.959C131.743 15.728 131.191 14.744 130.303 14.024C129.415 13.304 128.323 12.944 127.027 12.944C126.427 12.944 125.875 13.088 125.371 13.376C124.891 13.664 124.651 14.156 124.651 14.852C124.651 15.404 124.843 15.848 125.227 16.184C125.611 16.496 126.139 16.76 126.811 16.976C127.483 17.192 128.227 17.444 129.043 17.732C130.267 18.14 131.347 18.62 132.283 19.172C133.243 19.724 133.999 20.396 134.551 21.188C135.103 21.956 135.379 22.904 135.379 24.032C135.379 25.28 135.067 26.312 134.443 27.128C133.819 27.944 133.003 28.556 131.995 28.964C131.011 29.372 129.955 29.576 128.827 29.576ZM141.26 26.66C142.244 26.66 142.844 26.372 143.06 25.796C143.276 25.196 143.384 24.416 143.384 23.456V17.48C143.384 17.048 143.396 16.556 143.42 16.004C143.444 15.428 143.48 14.876 143.528 14.348C143.144 14.372 142.688 14.396 142.16 14.42C141.656 14.42 141.272 14.432 141.008 14.456V11.72C142.664 11.72 143.936 11.6 144.824 11.36C145.736 11.12 146.312 10.88 146.552 10.64H148.496V23.204C148.496 23.54 148.484 24.02 148.46 24.644C148.436 25.244 148.4 25.82 148.352 26.372C148.736 26.324 149.156 26.3 149.612 26.3C150.092 26.276 150.452 26.264 150.692 26.264V29H141.26V26.66ZM145.76 7.796C144.944 7.796 144.272 7.508 143.744 6.932C143.216 6.356 142.952 5.66 142.952 4.844C142.952 4.028 143.228 3.332 143.78 2.756C144.332 2.18 144.98 1.892 145.724 1.892C146.492 1.892 147.128 2.18 147.632 2.756C148.16 3.332 148.424 4.028 148.424 4.844C148.424 5.66 148.184 6.356 147.704 6.932C147.224 7.508 146.576 7.796 145.76 7.796ZM164.017 38.756C161.953 38.756 160.321 38.528 159.121 38.072C157.921 37.64 157.069 37.064 156.565 36.344C156.061 35.624 155.809 34.856 155.809 34.04C155.809 33.296 156.049 32.54 156.529 31.772C157.033 31.004 157.933 30.38 159.229 29.9C158.245 29.636 157.549 29.216 157.141 28.64C156.757 28.04 156.565 27.404 156.565 26.732C156.565 26.108 156.817 25.412 157.321 24.644C157.825 23.852 158.737 23.252 160.057 22.844C159.049 22.436 158.221 21.8 157.573 20.936C156.925 20.072 156.577 19.028 156.529 17.804C156.481 16.364 156.841 15.092 157.609 13.988C158.377 12.86 159.385 11.984 160.633 11.36C161.881 10.736 163.189 10.424 164.557 10.424C165.181 10.424 165.901 10.508 166.717 10.676C167.533 10.844 168.241 11.132 168.841 11.54C169.105 10.796 169.441 10.1 169.849 9.452C170.281 8.78 170.797 8.24 171.397 7.832C171.997 7.4 172.669 7.184 173.413 7.184C174.229 7.184 174.841 7.4 175.249 7.832C175.681 8.24 175.897 8.792 175.897 9.488C175.897 9.776 175.825 10.1 175.681 10.46C175.561 10.796 175.333 11.084 174.997 11.324C174.685 11.564 174.241 11.684 173.665 11.684C173.305 11.684 172.945 11.552 172.585 11.288C172.225 11 172.009 10.664 171.937 10.28C171.625 10.376 171.313 10.688 171.001 11.216C170.689 11.744 170.509 12.212 170.461 12.62C171.877 13.844 172.585 15.392 172.585 17.264C172.585 18.656 172.189 19.892 171.397 20.972C170.629 22.028 169.621 22.868 168.373 23.492C167.149 24.092 165.829 24.392 164.413 24.392C164.101 24.392 163.753 24.38 163.369 24.356C162.985 24.308 162.613 24.284 162.253 24.284C161.725 24.284 161.281 24.38 160.921 24.572C160.561 24.764 160.381 25.028 160.381 25.364C160.381 25.82 160.729 26.132 161.425 26.3C162.121 26.468 163.309 26.6 164.989 26.696C166.837 26.792 168.445 27.032 169.813 27.416C171.205 27.776 172.285 28.352 173.053 29.144C173.821 29.936 174.205 31.028 174.205 32.42C174.205 33.452 173.905 34.352 173.305 35.12C172.705 35.912 171.901 36.572 170.893 37.1C169.909 37.652 168.817 38.06 167.617 38.324C166.417 38.612 165.217 38.756 164.017 38.756ZM164.557 21.98C165.205 21.98 165.745 21.776 166.177 21.368C166.633 20.96 166.969 20.444 167.185 19.82C167.425 19.196 167.545 18.56 167.545 17.912C167.545 17.072 167.437 16.268 167.221 15.5C167.005 14.708 166.669 14.072 166.213 13.592C165.781 13.088 165.217 12.836 164.521 12.836C163.561 12.836 162.817 13.268 162.289 14.132C161.761 14.996 161.497 15.98 161.497 17.084C161.497 17.924 161.617 18.728 161.857 19.496C162.097 20.24 162.445 20.84 162.901 21.296C163.357 21.752 163.909 21.98 164.557 21.98ZM165.061 36.272C166.765 36.272 168.049 35.96 168.913 35.336C169.801 34.712 170.245 34.064 170.245 33.392C170.245 31.952 168.517 31.16 165.061 31.016C164.533 30.968 163.921 30.932 163.225 30.908C162.529 30.884 161.917 30.824 161.389 30.728C161.029 31.016 160.753 31.376 160.561 31.808C160.369 32.24 160.261 32.66 160.237 33.068C160.189 34.028 160.597 34.796 161.461 35.372C162.349 35.972 163.549 36.272 165.061 36.272ZM179.556 29V26.66C180.54 26.66 181.14 26.372 181.356 25.796C181.572 25.196 181.68 24.416 181.68 23.456V17.408C181.68 16.976 181.692 16.496 181.716 15.968C181.74 15.416 181.776 14.876 181.824 14.348C181.44 14.372 180.984 14.396 180.456 14.42C179.952 14.42 179.568 14.432 179.304 14.456V11.72C180.96 11.72 182.232 11.6 183.12 11.36C184.032 11.12 184.608 10.88 184.848 10.64H186.612C186.66 10.952 186.684 11.18 186.684 11.324C186.684 11.468 186.684 11.612 186.684 11.756C186.708 11.876 186.756 12.104 186.828 12.44C187.308 12.056 187.86 11.72 188.484 11.432C189.108 11.12 189.732 10.88 190.356 10.712C190.98 10.52 191.532 10.424 192.012 10.424C194.22 10.424 195.78 11.06 196.692 12.332C197.628 13.58 198.096 15.596 198.096 18.38V23.204C198.096 23.54 198.084 24.02 198.06 24.644C198.036 25.244 198 25.82 197.952 26.372C198.36 26.324 198.792 26.3 199.248 26.3C199.704 26.276 200.052 26.264 200.292 26.264V29H190.86V26.66C191.868 26.66 192.48 26.372 192.696 25.796C192.912 25.196 193.02 24.416 193.02 23.456L192.984 18.344C192.984 16.784 192.756 15.632 192.3 14.888C191.868 14.12 191.124 13.736 190.068 13.736C189.468 13.736 188.868 13.868 188.268 14.132C187.692 14.396 187.2 14.708 186.792 15.068V23.204C186.792 23.54 186.78 24.02 186.756 24.644C186.732 25.244 186.696 25.82 186.648 26.372C187.032 26.324 187.452 26.3 187.908 26.3C188.388 26.276 188.748 26.264 188.988 26.264V29H179.556Z" fill="#2CAEBA"/>
</g>
<defs>
<filter id="filter0_d" x="0.60907" y="0.891968" width="204.683" height="44.864" filterUnits="userSpaceOnUse" color-interpolation-filters="sRGB">
<feFlood flood-opacity="0" result="BackgroundImageFix"/>
<feColorMatrix in="SourceAlpha" type="matrix" values="0 0 0 0 0 0 0 0 0 0 0 0 0 0 0 0 0 0 127 0"/>
<feOffset dx="1" dy="3"/>
<feGaussianBlur stdDeviation="2"/>
<feColorMatrix type="matrix" values="0 0 0 0 0.595833 0 0 0 0 0.593351 0 0 0 0 0.593351 0 0 0 1 0"/>
<feBlend mode="normal" in2="BackgroundImageFix" result="effect1_dropShadow"/>
<feBlend mode="normal" in="SourceGraphic" in2="effect1_dropShadow" result="shape"/>
</filter>
</defs>
</svg>
